<svg width="128" height="128" viewBox="0 0 128 128" fill="none" xmlns="http://www.w3.org/2000/svg">
    <path
        d="M126.245 49.053C127.015 52.2722 127.542 55.5859 127.806 58.9736L124.316 59.2447C124.438 60.8132 124.5 62.399 124.5 64C124.5 65.601 124.438 67.1868 124.316 68.7553L127.806 69.0263C127.542 72.414 127.015 75.7278 126.245 78.947L122.841 78.1326C122.098 81.2411 121.114 84.2563 119.911 87.1577L123.144 88.4984C121.853 91.6118 120.323 94.6012 118.577 97.4438L115.595 95.6123C113.932 98.3196 112.062 100.887 110.007 103.291L112.667 105.565C110.489 108.113 108.113 110.489 105.565 112.667L103.291 110.007C100.887 112.062 98.3196 113.932 95.6123 115.595L97.4438 118.577C94.6012 120.323 91.6118 121.853 88.4984 123.144L87.1577 119.911C84.2563 121.114 81.2411 122.098 78.1326 122.841L78.947 126.245C75.7278 127.015 72.4141 127.542 69.0264 127.806L68.7553 124.316C67.1868 124.438 65.601 124.5 64 124.5C62.399 124.5 60.8132 124.438 59.2447 124.316L58.9737 127.806C55.5859 127.542 52.2722 127.015 49.053 126.245L49.8674 122.841C46.7589 122.098 43.7437 121.114 40.8423 119.911L39.5016 123.144C36.3882 121.853 33.3988 120.323 30.5562 118.577L32.3877 115.595C29.6804 113.932 27.1134 112.062 24.7092 110.007L22.4349 112.667C19.8865 110.489 17.5114 108.113 15.3328 105.565L17.9932 103.291C15.9378 100.887 14.0679 98.3196 12.4053 95.6123L9.42278 97.4438C7.67718 94.6012 6.14743 91.6118 4.85635 88.4984L8.0894 87.1577C6.88622 84.2563 5.90247 81.2411 5.15874 78.1326L1.75481 78.947C0.984608 75.7278 0.457656 72.414 0.194473 69.0263L3.68396 68.7553C3.56211 67.1868 3.5 65.601 3.5 64C3.5 62.399 3.56211 60.8132 3.68396 59.2447L0.194473 58.9737C0.457656 55.586 0.984607 52.2722 1.75481 49.053L5.15874 49.8674C5.90247 46.7589 6.88622 43.7437 8.08939 40.8423L4.85635 39.5016C6.14743 36.3882 7.67718 33.3988 9.42278 30.5562L12.4053 32.3877C14.0679 29.6804 15.9378 27.1134 17.9932 24.7092L15.3328 22.4349C17.5113 19.8865 19.8865 17.5114 22.4348 15.3328L24.7092 17.9932C27.1134 15.9378 29.6804 14.0679 32.3877 12.4053L30.5562 9.42278C33.3988 7.67718 36.3882 6.14743 39.5016 4.85635L40.8423 8.0894C43.7437 6.88622 46.7589 5.90247 49.8674 5.15874L49.053 1.75481C52.2722 0.984608 55.5859 0.457656 58.9737 0.194473L59.2447 3.68396C60.8132 3.56211 62.399 3.5 64 3.5C65.601 3.5 67.1868 3.56211 68.7553 3.68396L69.0263 0.194473C72.414 0.457655 75.7278 0.984607 78.947 1.75481L78.1326 5.15874C81.2411 5.90247 84.2563 6.88622 87.1577 8.08939L88.4984 4.85635C91.6118 6.14742 94.6012 7.67717 97.4438 9.42278L95.6123 12.4053C98.3196 14.0679 100.887 15.9378 103.291 17.9932L105.565 15.3328C108.113 17.5113 110.489 19.8865 112.667 22.4348L110.007 24.7092C112.062 27.1134 113.932 29.6804 115.595 32.3877L118.577 30.5562C120.323 33.3988 121.853 36.3882 123.144 39.5016L119.911 40.8423C121.114 43.7437 122.098 46.7589 122.841 49.8674L126.245 49.053Z"
        stroke="url(#paint0_linear_917_2267)" stroke-width="7" stroke-dasharray="10 10" />
    <path fill-rule="evenodd" clip-rule="evenodd"
        d="M84.0002 45.999C84.0002 44.8945 83.1048 43.999 82.0002 43.999L51.9263 43.999C50.6121 43.999 49.4622 44.1896 48.4766 44.5709C47.4909 44.9814 46.6696 45.5239 46.0125 46.1984C45.328 46.9022 44.8215 47.694 44.493 48.5738C44.1645 49.4829 44.0002 50.4213 44.0002 51.389V55.1534C44.0002 57.8296 46.1696 59.999 48.8458 59.999H72.0002L60.0002 51.999H82.0002C83.1048 51.999 84.0002 51.1036 84.0002 49.999V45.999ZM43.999 82.0005C43.999 83.105 44.8945 84.0005 45.999 84.0005L76.0729 84.0005C77.3871 84.0005 78.537 83.8099 79.5226 83.4286C80.5083 83.0181 81.3296 82.4756 81.9867 81.8011C82.6712 81.0973 83.1777 80.3055 83.5062 79.4257C83.8347 78.5166 83.999 77.5782 83.999 76.6105V72.8461C83.999 70.1699 81.8296 68.0005 79.1535 68.0005H55.999L67.999 76.0005H45.999C44.8945 76.0005 43.999 76.8959 43.999 78.0005V82.0005Z"
        fill="url(#paint1_linear_917_2267)" />
    <defs>
        <linearGradient id="paint0_linear_917_2267" x1="141.405" y1="-62.8483" x2="-77.4743" y2="125.935"
            gradientUnits="userSpaceOnUse">
            <stop stop-color="#FF0000" />
            <stop offset="1" stop-color="#FFC700" />
        </linearGradient>
        <linearGradient id="paint1_linear_917_2267" x1="88.1892" y1="24.3582" x2="19.7871" y2="83.3546"
            gradientUnits="userSpaceOnUse">
            <stop stop-color="#FF0000" />
            <stop offset="1" stop-color="#FFC700" />
        </linearGradient>
    </defs>
</svg>